<mxfile host="app.diagrams.net" modified="2023-01-05T10:49:22.133Z" agent="5.0 (Windows NT 10.0; Win64; x64) AppleWebKit/537.36 (KHTML, like Gecko) Chrome/102.0.5005.124 Safari/537.36 Edg/102.0.1245.41" etag="R9ZaI-QA3nR26nBIoXDc" version="20.8.1" type="github">
  <diagram id="sAFR3K0FHI-QMzSaqLU8" name="Page-1">
    <mxGraphModel dx="2607" dy="1447" grid="1" gridSize="10" guides="1" tooltips="1" connect="1" arrows="1" fold="1" page="1" pageScale="1" pageWidth="827" pageHeight="1169" math="0" shadow="0">
      <root>
        <mxCell id="0" />
        <mxCell id="1" parent="0" />
        <mxCell id="JPDFNG_8sJOL_J7qTDZQ-5" value="Modbus" style="edgeStyle=orthogonalEdgeStyle;rounded=0;orthogonalLoop=1;jettySize=auto;html=1;exitX=0.5;exitY=1;exitDx=0;exitDy=0;entryX=0.5;entryY=0;entryDx=0;entryDy=0;" parent="1" source="JPDFNG_8sJOL_J7qTDZQ-1" target="JPDFNG_8sJOL_J7qTDZQ-2" edge="1">
          <mxGeometry relative="1" as="geometry" />
        </mxCell>
        <mxCell id="JPDFNG_8sJOL_J7qTDZQ-1" value="Régulateur&lt;br&gt;(Vitesse ventilateur)" style="rounded=0;whiteSpace=wrap;html=1;" parent="1" vertex="1">
          <mxGeometry x="320" y="190" width="130" height="60" as="geometry" />
        </mxCell>
        <mxCell id="JPDFNG_8sJOL_J7qTDZQ-9" value="HDMI" style="edgeStyle=orthogonalEdgeStyle;rounded=0;orthogonalLoop=1;jettySize=auto;html=1;exitX=0;exitY=0.5;exitDx=0;exitDy=0;entryX=1;entryY=0.5;entryDx=0;entryDy=0;" parent="1" source="JPDFNG_8sJOL_J7qTDZQ-2" target="JPDFNG_8sJOL_J7qTDZQ-7" edge="1">
          <mxGeometry relative="1" as="geometry" />
        </mxCell>
        <mxCell id="JPDFNG_8sJOL_J7qTDZQ-2" value="Raspberry&lt;br&gt;-IHM C#&lt;br&gt;-Base de donnée SQL&lt;br&gt;- Serveur WEB" style="rounded=0;whiteSpace=wrap;html=1;" parent="1" vertex="1">
          <mxGeometry x="320" y="390" width="130" height="160" as="geometry" />
        </mxCell>
        <mxCell id="JPDFNG_8sJOL_J7qTDZQ-4" value="CSI" style="edgeStyle=orthogonalEdgeStyle;rounded=0;orthogonalLoop=1;jettySize=auto;html=1;exitX=1;exitY=0.5;exitDx=0;exitDy=0;entryX=0.5;entryY=0;entryDx=0;entryDy=0;" parent="1" source="JPDFNG_8sJOL_J7qTDZQ-3" target="JPDFNG_8sJOL_J7qTDZQ-2" edge="1">
          <mxGeometry relative="1" as="geometry" />
        </mxCell>
        <mxCell id="JPDFNG_8sJOL_J7qTDZQ-3" value="Caméra&amp;nbsp;" style="rounded=0;whiteSpace=wrap;html=1;" parent="1" vertex="1">
          <mxGeometry x="100" y="320" width="120" height="60" as="geometry" />
        </mxCell>
        <mxCell id="JPDFNG_8sJOL_J7qTDZQ-6" value="Matériel industriel" style="rounded=0;whiteSpace=wrap;html=1;" parent="1" vertex="1">
          <mxGeometry x="320" y="80" width="130" height="60" as="geometry" />
        </mxCell>
        <mxCell id="JPDFNG_8sJOL_J7qTDZQ-7" value="Ecran" style="rounded=0;whiteSpace=wrap;html=1;" parent="1" vertex="1">
          <mxGeometry x="100" y="440" width="120" height="60" as="geometry" />
        </mxCell>
        <mxCell id="JPDFNG_8sJOL_J7qTDZQ-19" value="Liaison série&amp;nbsp;" style="edgeStyle=orthogonalEdgeStyle;rounded=0;orthogonalLoop=1;jettySize=auto;html=1;exitX=0.5;exitY=1;exitDx=0;exitDy=0;entryX=1;entryY=0.5;entryDx=0;entryDy=0;" parent="1" source="JPDFNG_8sJOL_J7qTDZQ-10" target="JPDFNG_8sJOL_J7qTDZQ-2" edge="1">
          <mxGeometry relative="1" as="geometry" />
        </mxCell>
        <mxCell id="JPDFNG_8sJOL_J7qTDZQ-20" value="Liaison normalisée" style="edgeStyle=orthogonalEdgeStyle;rounded=0;orthogonalLoop=1;jettySize=auto;html=1;exitX=0.5;exitY=0;exitDx=0;exitDy=0;entryX=1;entryY=0.5;entryDx=0;entryDy=0;" parent="1" source="JPDFNG_8sJOL_J7qTDZQ-10" target="JPDFNG_8sJOL_J7qTDZQ-6" edge="1">
          <mxGeometry relative="1" as="geometry" />
        </mxCell>
        <mxCell id="JPDFNG_8sJOL_J7qTDZQ-10" value="ESP32&lt;br&gt;-Acquisition de mesures" style="rounded=0;whiteSpace=wrap;html=1;" parent="1" vertex="1">
          <mxGeometry x="510" y="300" width="150" height="60" as="geometry" />
        </mxCell>
        <mxCell id="JPDFNG_8sJOL_J7qTDZQ-14" style="edgeStyle=orthogonalEdgeStyle;rounded=0;orthogonalLoop=1;jettySize=auto;html=1;exitX=0;exitY=0.5;exitDx=0;exitDy=0;entryX=1;entryY=0.5;entryDx=0;entryDy=0;" parent="1" source="JPDFNG_8sJOL_J7qTDZQ-11" target="JPDFNG_8sJOL_J7qTDZQ-10" edge="1">
          <mxGeometry relative="1" as="geometry" />
        </mxCell>
        <mxCell id="JPDFNG_8sJOL_J7qTDZQ-11" value="HX711" style="rounded=0;whiteSpace=wrap;html=1;" parent="1" vertex="1">
          <mxGeometry x="720" y="250" width="120" height="60" as="geometry" />
        </mxCell>
        <mxCell id="JPDFNG_8sJOL_J7qTDZQ-13" style="edgeStyle=orthogonalEdgeStyle;rounded=0;orthogonalLoop=1;jettySize=auto;html=1;exitX=0;exitY=0.5;exitDx=0;exitDy=0;entryX=1;entryY=0.5;entryDx=0;entryDy=0;" parent="1" source="JPDFNG_8sJOL_J7qTDZQ-12" target="JPDFNG_8sJOL_J7qTDZQ-10" edge="1">
          <mxGeometry relative="1" as="geometry" />
        </mxCell>
        <mxCell id="JPDFNG_8sJOL_J7qTDZQ-12" value="HX711" style="rounded=0;whiteSpace=wrap;html=1;" parent="1" vertex="1">
          <mxGeometry x="720" y="340" width="120" height="60" as="geometry" />
        </mxCell>
        <mxCell id="JPDFNG_8sJOL_J7qTDZQ-18" style="edgeStyle=orthogonalEdgeStyle;rounded=0;orthogonalLoop=1;jettySize=auto;html=1;exitX=0;exitY=0.5;exitDx=0;exitDy=0;entryX=1;entryY=0.5;entryDx=0;entryDy=0;" parent="1" source="JPDFNG_8sJOL_J7qTDZQ-15" target="JPDFNG_8sJOL_J7qTDZQ-11" edge="1">
          <mxGeometry relative="1" as="geometry" />
        </mxCell>
        <mxCell id="JPDFNG_8sJOL_J7qTDZQ-15" value="Jauge de pression" style="rounded=0;whiteSpace=wrap;html=1;" parent="1" vertex="1">
          <mxGeometry x="910" y="250" width="120" height="60" as="geometry" />
        </mxCell>
        <mxCell id="JPDFNG_8sJOL_J7qTDZQ-17" style="edgeStyle=orthogonalEdgeStyle;rounded=0;orthogonalLoop=1;jettySize=auto;html=1;exitX=0;exitY=0.5;exitDx=0;exitDy=0;entryX=1;entryY=0.5;entryDx=0;entryDy=0;" parent="1" source="JPDFNG_8sJOL_J7qTDZQ-16" target="JPDFNG_8sJOL_J7qTDZQ-12" edge="1">
          <mxGeometry relative="1" as="geometry" />
        </mxCell>
        <mxCell id="JPDFNG_8sJOL_J7qTDZQ-16" value="Jauge de pression" style="rounded=0;whiteSpace=wrap;html=1;" parent="1" vertex="1">
          <mxGeometry x="910" y="340" width="120" height="60" as="geometry" />
        </mxCell>
        <mxCell id="JPDFNG_8sJOL_J7qTDZQ-21" value="" style="endArrow=classic;startArrow=classic;html=1;rounded=0;entryX=0.5;entryY=1;entryDx=0;entryDy=0;exitX=0.5;exitY=0;exitDx=0;exitDy=0;" parent="1" source="JPDFNG_8sJOL_J7qTDZQ-2" target="JPDFNG_8sJOL_J7qTDZQ-1" edge="1">
          <mxGeometry width="50" height="50" relative="1" as="geometry">
            <mxPoint x="370" y="430" as="sourcePoint" />
            <mxPoint x="420" y="380" as="targetPoint" />
          </mxGeometry>
        </mxCell>
        <mxCell id="JPDFNG_8sJOL_J7qTDZQ-22" value="" style="endArrow=classic;html=1;rounded=0;entryX=0.5;entryY=1;entryDx=0;entryDy=0;" parent="1" target="JPDFNG_8sJOL_J7qTDZQ-10" edge="1">
          <mxGeometry width="50" height="50" relative="1" as="geometry">
            <mxPoint x="585" y="440" as="sourcePoint" />
            <mxPoint x="420" y="380" as="targetPoint" />
          </mxGeometry>
        </mxCell>
        <mxCell id="JPDFNG_8sJOL_J7qTDZQ-24" value="Mesure" style="rounded=0;whiteSpace=wrap;html=1;" parent="1" vertex="1">
          <mxGeometry x="20" y="680" width="120" height="30" as="geometry" />
        </mxCell>
        <mxCell id="JPDFNG_8sJOL_J7qTDZQ-25" value="-BDD" style="text;html=1;strokeColor=none;fillColor=none;align=center;verticalAlign=middle;whiteSpace=wrap;rounded=0;" parent="1" vertex="1">
          <mxGeometry x="140" y="630" width="60" height="30" as="geometry" />
        </mxCell>
        <mxCell id="JPDFNG_8sJOL_J7qTDZQ-26" value="idMesure&lt;br&gt;&lt;u&gt;idMateriel&lt;/u&gt;&lt;br&gt;dateMesure&lt;br&gt;nomMesure&lt;br&gt;Vitesse&lt;br&gt;Portance&lt;br&gt;Trainée" style="rounded=0;whiteSpace=wrap;html=1;" parent="1" vertex="1">
          <mxGeometry x="20" y="710" width="120" height="150" as="geometry" />
        </mxCell>
        <mxCell id="JPDFNG_8sJOL_J7qTDZQ-27" value="ConfMateriel" style="rounded=0;whiteSpace=wrap;html=1;" parent="1" vertex="1">
          <mxGeometry x="190" y="680" width="120" height="30" as="geometry" />
        </mxCell>
        <mxCell id="JPDFNG_8sJOL_J7qTDZQ-28" value="&lt;u&gt;idMateriel&lt;/u&gt;&lt;br&gt;nomMateriel&lt;br&gt;rho&lt;br&gt;Surface&lt;br&gt;Vitesse&lt;br&gt;Cz&lt;br&gt;Cx" style="rounded=0;whiteSpace=wrap;html=1;" parent="1" vertex="1">
          <mxGeometry x="190" y="710" width="120" height="150" as="geometry" />
        </mxCell>
        <mxCell id="JPDFNG_8sJOL_J7qTDZQ-29" value="" style="rounded=0;whiteSpace=wrap;html=1;" parent="1" vertex="1">
          <mxGeometry x="320" y="950" width="1020" height="590" as="geometry" />
        </mxCell>
        <mxCell id="JPDFNG_8sJOL_J7qTDZQ-32" value="&lt;font style=&quot;font-size: 40px;&quot;&gt;EOLIA&lt;/font&gt;" style="text;html=1;strokeColor=none;fillColor=none;align=center;verticalAlign=middle;whiteSpace=wrap;rounded=0;" parent="1" vertex="1">
          <mxGeometry x="770" y="990" width="120" height="30" as="geometry" />
        </mxCell>
        <mxCell id="JPDFNG_8sJOL_J7qTDZQ-33" value="Lancer l&#39;application" style="rounded=0;whiteSpace=wrap;html=1;fontSize=40;" parent="1" vertex="1">
          <mxGeometry x="545" y="1190" width="570" height="71" as="geometry" />
        </mxCell>
        <mxCell id="JPDFNG_8sJOL_J7qTDZQ-35" value="Date" style="text;html=1;strokeColor=none;fillColor=none;align=center;verticalAlign=middle;whiteSpace=wrap;rounded=0;fontSize=24;" parent="1" vertex="1">
          <mxGeometry x="1280" y="1510" width="60" height="30" as="geometry" />
        </mxCell>
        <mxCell id="JPDFNG_8sJOL_J7qTDZQ-37" value="&lt;font style=&quot;font-size: 15px;&quot;&gt;- Adresse bdd&lt;br&gt;- utilisateur bdd&lt;br&gt;- mot de passe bdd&lt;br&gt;&lt;/font&gt;" style="rounded=0;whiteSpace=wrap;html=1;fontSize=24;" parent="1" vertex="1">
          <mxGeometry x="680" y="630" width="190" height="100" as="geometry" />
        </mxCell>
        <mxCell id="JPDFNG_8sJOL_J7qTDZQ-38" value="Fichier de config" style="text;html=1;strokeColor=none;fillColor=none;align=center;verticalAlign=middle;whiteSpace=wrap;rounded=0;fontSize=24;" parent="1" vertex="1">
          <mxGeometry x="680" y="600" width="190" height="30" as="geometry" />
        </mxCell>
        <mxCell id="JPDFNG_8sJOL_J7qTDZQ-41" value="" style="rounded=0;whiteSpace=wrap;html=1;" parent="1" vertex="1">
          <mxGeometry x="320" y="1580" width="1020" height="590" as="geometry" />
        </mxCell>
        <mxCell id="JPDFNG_8sJOL_J7qTDZQ-42" value="&lt;font style=&quot;font-size: 40px;&quot;&gt;EOLIA&lt;/font&gt;" style="text;html=1;strokeColor=none;fillColor=none;align=center;verticalAlign=middle;whiteSpace=wrap;rounded=0;" parent="1" vertex="1">
          <mxGeometry x="770" y="1600" width="120" height="30" as="geometry" />
        </mxCell>
        <mxCell id="JPDFNG_8sJOL_J7qTDZQ-43" value="" style="rounded=0;whiteSpace=wrap;html=1;fontSize=15;" parent="1" vertex="1">
          <mxGeometry x="320" y="1670" width="1020" height="500" as="geometry" />
        </mxCell>
        <mxCell id="JPDFNG_8sJOL_J7qTDZQ-44" value="" style="rounded=0;whiteSpace=wrap;html=1;fontSize=15;" parent="1" vertex="1">
          <mxGeometry x="320" y="1640" width="1020" height="50" as="geometry" />
        </mxCell>
        <mxCell id="JPDFNG_8sJOL_J7qTDZQ-45" value="&lt;font style=&quot;font-size: 21px;&quot;&gt;Etat&lt;/font&gt;" style="rounded=0;whiteSpace=wrap;html=1;fontSize=15;fillColor=#CCCCCC;" parent="1" vertex="1">
          <mxGeometry x="320" y="1640" width="200" height="50" as="geometry" />
        </mxCell>
        <mxCell id="JPDFNG_8sJOL_J7qTDZQ-46" value="&lt;font style=&quot;font-size: 21px;&quot;&gt;Mesure&lt;/font&gt;" style="rounded=0;whiteSpace=wrap;html=1;fontSize=15;" parent="1" vertex="1">
          <mxGeometry x="520" y="1640" width="200" height="50" as="geometry" />
        </mxCell>
        <mxCell id="JPDFNG_8sJOL_J7qTDZQ-47" value="&lt;font style=&quot;font-size: 21px;&quot;&gt;Configuration&lt;/font&gt;" style="rounded=0;whiteSpace=wrap;html=1;fontSize=15;" parent="1" vertex="1">
          <mxGeometry x="720" y="1640" width="200" height="50" as="geometry" />
        </mxCell>
        <mxCell id="JPDFNG_8sJOL_J7qTDZQ-48" value="" style="rounded=0;whiteSpace=wrap;html=1;" parent="1" vertex="1">
          <mxGeometry x="1360" y="1580" width="1020" height="590" as="geometry" />
        </mxCell>
        <mxCell id="JPDFNG_8sJOL_J7qTDZQ-49" value="&lt;font style=&quot;font-size: 40px;&quot;&gt;EOLIA&lt;/font&gt;" style="text;html=1;strokeColor=none;fillColor=none;align=center;verticalAlign=middle;whiteSpace=wrap;rounded=0;" parent="1" vertex="1">
          <mxGeometry x="1810" y="1600" width="120" height="30" as="geometry" />
        </mxCell>
        <mxCell id="JPDFNG_8sJOL_J7qTDZQ-50" value="" style="rounded=0;whiteSpace=wrap;html=1;fontSize=15;" parent="1" vertex="1">
          <mxGeometry x="1360" y="1670" width="1020" height="500" as="geometry" />
        </mxCell>
        <mxCell id="JPDFNG_8sJOL_J7qTDZQ-51" value="" style="rounded=0;whiteSpace=wrap;html=1;fontSize=15;" parent="1" vertex="1">
          <mxGeometry x="1360" y="1640" width="1020" height="50" as="geometry" />
        </mxCell>
        <mxCell id="JPDFNG_8sJOL_J7qTDZQ-52" value="&lt;font style=&quot;font-size: 21px;&quot;&gt;Etat&lt;/font&gt;" style="rounded=0;whiteSpace=wrap;html=1;fontSize=15;fillColor=#FFFFFF;" parent="1" vertex="1">
          <mxGeometry x="1360" y="1640" width="200" height="50" as="geometry" />
        </mxCell>
        <mxCell id="JPDFNG_8sJOL_J7qTDZQ-53" value="&lt;font style=&quot;font-size: 21px;&quot;&gt;Mesure&lt;/font&gt;" style="rounded=0;whiteSpace=wrap;html=1;fontSize=15;fillColor=#CCCCCC;" parent="1" vertex="1">
          <mxGeometry x="1560" y="1640" width="200" height="50" as="geometry" />
        </mxCell>
        <mxCell id="JPDFNG_8sJOL_J7qTDZQ-54" value="&lt;font style=&quot;font-size: 21px;&quot;&gt;Configuration&lt;/font&gt;" style="rounded=0;whiteSpace=wrap;html=1;fontSize=15;" parent="1" vertex="1">
          <mxGeometry x="1760" y="1640" width="200" height="50" as="geometry" />
        </mxCell>
        <mxCell id="JPDFNG_8sJOL_J7qTDZQ-62" value="" style="rounded=0;whiteSpace=wrap;html=1;" parent="1" vertex="1">
          <mxGeometry x="2420" y="1580" width="1020" height="590" as="geometry" />
        </mxCell>
        <mxCell id="JPDFNG_8sJOL_J7qTDZQ-63" value="&lt;font style=&quot;font-size: 40px;&quot;&gt;EOLIA&lt;/font&gt;" style="text;html=1;strokeColor=none;fillColor=none;align=center;verticalAlign=middle;whiteSpace=wrap;rounded=0;" parent="1" vertex="1">
          <mxGeometry x="2870" y="1600" width="120" height="30" as="geometry" />
        </mxCell>
        <mxCell id="JPDFNG_8sJOL_J7qTDZQ-64" value="" style="rounded=0;whiteSpace=wrap;html=1;fontSize=15;" parent="1" vertex="1">
          <mxGeometry x="2420" y="1670" width="1020" height="500" as="geometry" />
        </mxCell>
        <mxCell id="JPDFNG_8sJOL_J7qTDZQ-65" value="" style="rounded=0;whiteSpace=wrap;html=1;fontSize=15;" parent="1" vertex="1">
          <mxGeometry x="2420" y="1640" width="1020" height="50" as="geometry" />
        </mxCell>
        <mxCell id="JPDFNG_8sJOL_J7qTDZQ-66" value="&lt;font style=&quot;font-size: 21px;&quot;&gt;Etat&lt;/font&gt;" style="rounded=0;whiteSpace=wrap;html=1;fontSize=15;fillColor=#FFFFFF;" parent="1" vertex="1">
          <mxGeometry x="2420" y="1640" width="200" height="50" as="geometry" />
        </mxCell>
        <mxCell id="JPDFNG_8sJOL_J7qTDZQ-67" value="&lt;font style=&quot;font-size: 21px;&quot;&gt;Mesure&lt;/font&gt;" style="rounded=0;whiteSpace=wrap;html=1;fontSize=15;" parent="1" vertex="1">
          <mxGeometry x="2620" y="1640" width="200" height="50" as="geometry" />
        </mxCell>
        <mxCell id="JPDFNG_8sJOL_J7qTDZQ-68" value="&lt;font style=&quot;font-size: 21px;&quot;&gt;Configuration&lt;/font&gt;" style="rounded=0;whiteSpace=wrap;html=1;fontSize=15;fillColor=#CCCCCC;" parent="1" vertex="1">
          <mxGeometry x="2820" y="1640" width="200" height="50" as="geometry" />
        </mxCell>
        <mxCell id="HuRnm2rSPpH4nqsMaASo-7" value="" style="rounded=0;whiteSpace=wrap;html=1;fontSize=21;" vertex="1" parent="1">
          <mxGeometry x="1870" y="1715" width="490" height="435" as="geometry" />
        </mxCell>
        <mxCell id="HuRnm2rSPpH4nqsMaASo-10" value="Arrêter l&#39;application" style="rounded=0;whiteSpace=wrap;html=1;fontSize=40;" vertex="1" parent="1">
          <mxGeometry x="545" y="2050" width="570" height="71" as="geometry" />
        </mxCell>
        <mxCell id="HuRnm2rSPpH4nqsMaASo-23" value="" style="ellipse;shape=cloud;whiteSpace=wrap;html=1;fontSize=21;" vertex="1" parent="1">
          <mxGeometry x="940" y="1740" width="324" height="216" as="geometry" />
        </mxCell>
        <mxCell id="HuRnm2rSPpH4nqsMaASo-24" value="VITESSE&lt;br&gt;XXX Km/h" style="text;html=1;strokeColor=none;fillColor=none;align=center;verticalAlign=middle;whiteSpace=wrap;rounded=0;fontSize=21;" vertex="1" parent="1">
          <mxGeometry x="1030" y="1818" width="160" height="60" as="geometry" />
        </mxCell>
        <mxCell id="HuRnm2rSPpH4nqsMaASo-26" value="" style="shape=cylinder3;whiteSpace=wrap;html=1;boundedLbl=1;backgroundOutline=1;size=15;fontSize=21;" vertex="1" parent="1">
          <mxGeometry x="430" y="1754" width="154.5" height="206" as="geometry" />
        </mxCell>
        <mxCell id="HuRnm2rSPpH4nqsMaASo-27" value="BASE&lt;br&gt;DE&lt;br&gt;DONNEE" style="text;html=1;strokeColor=none;fillColor=none;align=center;verticalAlign=middle;whiteSpace=wrap;rounded=0;fontSize=21;" vertex="1" parent="1">
          <mxGeometry x="467.25" y="1818" width="80" height="32" as="geometry" />
        </mxCell>
        <mxCell id="HuRnm2rSPpH4nqsMaASo-30" value="Connecter" style="text;html=1;strokeColor=none;fillColor=none;align=center;verticalAlign=middle;whiteSpace=wrap;rounded=0;fontSize=21;" vertex="1" parent="1">
          <mxGeometry x="450" y="1900" width="110" height="30" as="geometry" />
        </mxCell>
      </root>
    </mxGraphModel>
  </diagram>
</mxfile>
